<svg version="1.1" xmlns:xl="http://www.w3.org/1999/xlink" xmlns="http://www.w3.org/2000/svg" xmlns:dc="http://purl.org/dc/elements/1.1/" viewBox="150 70 500 500" width="30" height="30" class="hunt-icon">
  <path style="fill:currentColor" d="M 530.2473 162.64606 C 444.86186 77.26019 306.42483 77.26019 221.0394 162.64606 C 135.65353 248.0315 135.65353 386.4685 221.0394 471.85394 C 306.42483 557.2398 444.86186 557.2398 530.2473 471.85394 C 615.63315 386.4685 615.63315 248.0315 530.2473 162.64606 M 514.4899 178.40346 C 591.1731 255.0863 591.1731 379.4137 514.4899 456.09654 C 437.80703 532.7798 313.47966 532.7798 236.7968 456.09654 C 160.11356 379.4137 160.11356 255.0863 236.7968 178.40346 C 313.47966 101.72022 437.80703 101.72022 514.4899 178.40346"/>
  <path style="fill:currentColor" d="M 367.25 296.5 L 367.25 296.5 C 355.7901 296.5 346.5 305.7901 346.5 317.25 C 346.5 328.7099 355.7901 338 367.25 338 L 522.25 338 C 533.7099 338 543 328.7099 543 317.25 C 543 305.7901 533.7099 296.5 522.25 296.5 Z M 525.9727 307.5273 C 531.34244 312.897 531.34244 321.603 525.9727 326.9727 C 520.603 332.34244 511.897 332.34244 506.5273 326.9727 C 501.15756 321.603 501.15756 312.897 506.5273 307.5273 C 511.897 302.15756 520.603 302.15756 525.9727 307.5273"/>
  <rect style="fill:currentColor" x="223" y="311.5" width="131" height="11.5"/>
  <path style="fill:currentColor" d="M 222.7017 322.87586 L 208.2915 299.45373 L 220.96826 298.11207 L 229.61437 312.16536 Z"/>
</svg>
